<?xml version="1.0" encoding="UTF-8"?>
<svg xmlns="http://www.w3.org/2000/svg" xmlns:svgjs="http://svgjs.com/svgjs" id="SvgjsSvg1047" width="100%" height="100%" preserveAspectRatio="xMidYMid meet" viewBox="3.7783442508043663e-7 -2.2138992861187035e-8 300.0000305175781 41.0224494934082" overflow="visible">
  <defs id="SvgjsDefs1048"></defs>
  <g id="SvgjsG1049" transform="scale(0.4527864294538484)" opacity="1">
    <g id="SvgjsG1050" class="LenwI4dI2c" transform="translate(-5.033555818029516, -5.035570200923097) scale(1.0067113848169662)" fill="#F0386B">
      <path fill="none" d="M51.864 35.78l1.702-.108c.426 0 .64-.211.64-.531l-.214-10.865c0-.425-.212-.639-.532-.532h-1.703c-.425 0-.637.212-.637.64l.212 10.757c0 .427.214.639.532.639zm3.729-.108l1.703-.105c.425 0 .637-.106.637-.532l-.213-10.864c0-.319-.212-.532-.639-.532h-1.703c-.425.106-.532.318-.532.639l.108 10.758c0 .426.214.636.639.636z"></path>
      <path fill="none" d="M70.398 30.881h.212c.318 0 .532-.212.532-.639l-.106-2.77c.106-.318-.108-.531-.532-.531l-10.865.212c-.426 0-.639.212-.639.639l.108 2.77c0 .214.104.425.318.532.637 3.514 1.703 9.906-.64 10.439-8.735 8.626-.96 16.933-5.327 13.207-6.495-7.031-18.529-2.985-18.529-2.985-3.408-5.855-11.077-4.685-13.21-4.153-.426.108-.639.318-.639.745V71.46c0 .426.318.745.745.745 10.865.323 16.3 6.818 33.659 4.478 5.536-.856 11.397-.856 14.379-.748 1.063 0 1.916-.745 2.128-1.81.852-3.516 2.77-7.35 2.77-14.805 0-8.628-3.727-14.482-3.727-21.834.001-2.769-.211-4.792-.637-6.605zm3.941-8.094l-1.813.106c-.32 0-.532.214-.532.639l.212 10.758c0 .426.214.532.532.532h1.813c.32 0 .532-.214.532-.639l-.106-10.759c-.106-.424-.319-.531-.638-.637zm3.725 0h-1.81c-.318 0-.532.212-.532.638l.214 10.759c0 .425.105.639.532.639l1.705-.106c.426 0 .638-.214.638-.532l-.212-10.865c0-.427-.214-.533-.535-.533z"></path>
      <path fill-rule="evenodd" clip-rule="evenodd" d="M49.95 5.002C25.131 5.002 5 25.132 5 49.947c0 24.816 20.131 45.051 44.95 45.051C74.763 94.998 95 74.763 95 49.947 95 25.132 74.763 5.002 49.95 5.002zm5.429 18.636h1.703c.426 0 .639.214.639.532l.212 10.865c0 .426-.212.532-.637.532l-1.703.105c-.425 0-.639-.211-.639-.637l-.108-10.758c0-.32.108-.533.533-.639zm-3.623.106h1.703c.32-.106.532.108.532.532l.214 10.865c0 .32-.214.531-.64.531l-1.702.108c-.318 0-.532-.212-.532-.638l-.212-10.757c0-.428.213-.641.637-.641zm20.237 50.38c-.212 1.065-1.065 1.81-2.128 1.81-2.982-.108-8.843-.108-14.379.748-17.36 2.34-22.794-4.155-33.659-4.478a.727.727 0 0 1-.745-.745V48.347c0-.426.212-.637.639-.745 2.133-.532 9.802-1.702 13.21 4.153 0 0 12.034-4.045 18.529 2.985 4.367 3.727-3.408-4.581 5.327-13.207 2.343-.532 1.277-6.924.64-10.439a.582.582 0 0 1-.318-.532l-.108-2.77c0-.426.212-.639.639-.639l10.865-.212c.425 0 .638.212.532.531l.106 2.77c0 .426-.214.639-.532.639h-.212c.426 1.813.638 3.836.638 6.604 0 7.352 3.727 13.207 3.727 21.834-.001 7.455-1.918 11.289-2.771 14.805zm2.558-39.301h-1.813c-.318 0-.532-.106-.532-.532l-.212-10.758c0-.425.212-.639.532-.639l1.813-.106c.32.106.532.212.638.638l.106 10.759c0 .424-.212.638-.532.638zm3.622-.106l-1.705.106c-.428 0-.532-.214-.532-.639l-.214-10.759c0-.426.214-.638.532-.638h1.81c.322 0 .535.106.535.532l.212 10.865c0 .319-.212.533-.638.533z"></path>
    </g>
    <g id="SvgjsG1051" class="text" transform="translate(396.5840378319657, 67.35000076293946) scale(1)" fill="#403c3d">
      <path d="M-264.42 -6.18L-263.88 -5.52C-263.04 -4.32 -261.56 -3.08 -259.44 -1.8C-258.4 -1.12 -257.04 -0.55 -255.36 -0.09C-253.68 0.37 -251.9 0.6 -250.02 0.6C-246.34 0.6 -242.88 -0.46 -239.64 -2.58C-237.96 -3.66 -236.6 -5.19 -235.56 -7.17C-234.52 -9.15 -234 -11.44 -234 -14.04C-234 -16.64 -234.51 -18.83 -235.53 -20.61C-236.55 -22.39 -237.82 -23.64 -239.34 -24.36C-240.86 -25.08 -242.52 -25.69 -244.32 -26.19C-246.12 -26.69 -247.78 -27.06 -249.3 -27.3C-250.82 -27.54 -252.09 -28 -253.11 -28.68C-254.13 -29.36 -254.64 -30.25 -254.64 -31.35C-254.64 -32.45 -254.21 -33.31 -253.35 -33.93C-252.49 -34.55 -251.41 -34.86 -250.11 -34.86C-248.81 -34.86 -247.74 -34.6 -246.9 -34.08C-246.62 -33.88 -246.31 -33.62 -245.97 -33.3C-245.63 -32.98 -245.4 -32.78 -245.28 -32.7C-244.04 -31.9 -243 -31.5 -242.16 -31.5C-240.72 -31.5 -239.32 -32.5 -237.96 -34.5C-237 -35.9 -236.52 -37 -236.52 -37.8C-236.52 -38.6 -237.14 -39.58 -238.38 -40.74L-239.88 -41.88C-240.64 -42.52 -242.01 -43.15 -243.99 -43.77C-245.97 -44.39 -248.16 -44.7 -250.56 -44.7C-255.08 -44.7 -258.65 -43.39 -261.27 -40.77C-263.89 -38.15 -265.2 -35.08 -265.2 -31.56C-265.2 -29 -264.69 -26.81 -263.67 -24.99C-262.65 -23.17 -261.38 -21.84 -259.86 -21C-258.34 -20.16 -256.7 -19.43 -254.94 -18.81C-253.18 -18.19 -251.54 -17.74 -250.02 -17.46C-248.5 -17.18 -247.23 -16.73 -246.21 -16.11C-245.19 -15.49 -244.68 -14.72 -244.68 -13.8C-244.68 -10.76 -246.54 -9.24 -250.26 -9.24C-251.14 -9.24 -252.1 -9.55 -253.14 -10.17C-254.18 -10.79 -254.98 -11.44 -255.54 -12.12C-257.54 -14.12 -259.1 -15.12 -260.22 -15.12C-261.34 -15.12 -262.4 -14.64 -263.4 -13.68C-265.12 -12 -265.98 -10.65 -265.98 -9.63C-265.98 -8.61 -265.46 -7.46 -264.42 -6.18Z M-224.1 -38.7L-224.1 -5.34C-224.1 -3.94 -223.98 -2.92 -223.74 -2.28C-223.26 -0.76 -221.62 0 -218.82 0C-216.26 0 -214.7 -0.54 -214.14 -1.62C-213.82 -2.22 -213.63 -2.74 -213.57 -3.18C-213.51 -3.62 -213.48 -4.32 -213.48 -5.28L-213.48 -38.64C-213.48 -40.04 -213.58 -41.08 -213.78 -41.76C-214.3 -43.24 -215.96 -43.98 -218.76 -43.98C-221.32 -43.98 -222.88 -43.44 -223.44 -42.36C-223.76 -41.76 -223.95 -41.23 -224.01 -40.77C-224.07 -40.31 -224.1 -39.62 -224.1 -38.7Z M-155.94 -42.3C-156.5 -43.38 -158.05 -43.92 -160.59 -43.92C-163.13 -43.92 -164.74 -43.38 -165.42 -42.3C-167.7 -39.42 -172.24 -33.48 -179.04 -24.48L-192.66 -42.36L-193.02 -42.72C-193.26 -43 -193.77 -43.27 -194.55 -43.53C-195.33 -43.79 -196.26 -43.92 -197.34 -43.92C-199.86 -43.92 -201.42 -43.4 -202.02 -42.36C-202.34 -41.76 -202.53 -41.23 -202.59 -40.77C-202.65 -40.31 -202.68 -39.62 -202.68 -38.7L-202.68 -5.4C-202.68 -4.44 -202.65 -3.72 -202.59 -3.24C-202.53 -2.76 -202.34 -2.24 -202.02 -1.68C-201.42 -0.6 -199.9 -0.06 -197.46 -0.06C-194.94 -0.06 -193.38 -0.6 -192.78 -1.68C-192.46 -2.24 -192.27 -2.75 -192.21 -3.21C-192.15 -3.67 -192.12 -4.36 -192.12 -5.28L-192.12 -25.5C-191.92 -25.26 -190.64 -23.51 -188.28 -20.25C-185.92 -16.99 -184.34 -14.86 -183.54 -13.86L-183.06 -13.2C-182.74 -12.8 -182.21 -12.39 -181.47 -11.97C-180.73 -11.55 -179.91 -11.34 -179.01 -11.34C-178.11 -11.34 -177.27 -11.57 -176.49 -12.03C-175.71 -12.49 -175.22 -12.85 -175.02 -13.11C-174.82 -13.37 -174.46 -13.84 -173.94 -14.52C-173.42 -15.2 -172.2 -16.89 -170.28 -19.59C-168.36 -22.29 -166.9 -24.26 -165.9 -25.5L-165.9 -5.4C-165.9 -4 -165.8 -2.96 -165.6 -2.28C-165.4 -1.76 -165.12 -1.36 -164.76 -1.08C-164.4 -0.8 -163.88 -0.56 -163.2 -0.36C-162.52 -0.16 -161.6 -0.06 -160.44 -0.06C-159.28 -0.06 -158.32 -0.18 -157.56 -0.42C-156.04 -0.9 -155.28 -2.52 -155.28 -5.28L-155.28 -38.58C-155.28 -39.5 -155.31 -40.2 -155.37 -40.68C-155.43 -41.16 -155.62 -41.7 -155.94 -42.3Z M-110.46 -28.02C-110.46 -30.62 -110.98 -32.98 -112.02 -35.1C-113.06 -37.22 -114.4 -38.9 -116.04 -40.14C-119.36 -42.7 -122.78 -43.98 -126.3 -43.98L-139.14 -43.98C-141.7 -43.98 -143.26 -43.44 -143.82 -42.36C-144.14 -41.76 -144.33 -41.23 -144.39 -40.77C-144.45 -40.31 -144.48 -39.62 -144.48 -38.7L-144.48 -5.4C-144.48 -4 -144.36 -2.96 -144.12 -2.28C-143.64 -0.8 -142 -0.06 -139.2 -0.06C-136.64 -0.06 -135.08 -0.6 -134.52 -1.68C-134.2 -2.28 -134.01 -2.81 -133.95 -3.27C-133.89 -3.73 -133.86 -4.42 -133.86 -5.34L-133.86 -12.12L-126.36 -12.12C-122.8 -12.12 -119.36 -13.4 -116.04 -15.96C-114.4 -17.2 -113.06 -18.87 -112.02 -20.97C-110.98 -23.07 -110.46 -25.42 -110.46 -28.02ZM-122.76 -24.06C-123.92 -23.18 -125.1 -22.74 -126.3 -22.74L-133.86 -22.74L-133.86 -33.36L-126.36 -33.36C-125.12 -33.36 -123.92 -32.91 -122.76 -32.01C-121.6 -31.11 -121.02 -29.78 -121.02 -28.02C-121.02 -26.26 -121.6 -24.94 -122.76 -24.06Z M-89.94 -8.88L-89.94 -38.64C-89.94 -40.04 -90.04 -41.08 -90.24 -41.76C-90.76 -43.24 -92.42 -43.98 -95.22 -43.98C-97.78 -43.98 -99.34 -43.44 -99.9 -42.36C-100.22 -41.76 -100.41 -41.23 -100.47 -40.77C-100.53 -40.31 -100.56 -39.62 -100.56 -38.7L-100.56 -5.34C-100.56 -3.94 -100.44 -2.92 -100.2 -2.28C-99.72 -0.76 -98.08 0 -95.28 0L-73.68 0C-72.36 0 -71.32 -0.2 -70.56 -0.6C-70.08 -0.84 -69.74 -1.28 -69.54 -1.92C-69.34 -2.56 -69.24 -3.41 -69.24 -4.47C-69.24 -5.53 -69.34 -6.38 -69.54 -7.02C-69.74 -7.66 -70.14 -8.13 -70.74 -8.43C-71.34 -8.73 -72.3 -8.88 -73.62 -8.88Z M-48.72 -10.62L-48.72 -16.68L-36.96 -16.68C-35.56 -16.68 -34.52 -16.8 -33.84 -17.04C-32.32 -17.52 -31.56 -19.16 -31.56 -21.96C-31.56 -24.52 -32.1 -26.08 -33.18 -26.64C-33.78 -26.96 -34.31 -27.15 -34.77 -27.21C-35.23 -27.27 -35.92 -27.3 -36.84 -27.3L-48.72 -27.3L-48.72 -33.36L-30.3 -33.36C-28.9 -33.36 -27.86 -33.48 -27.18 -33.72C-25.7 -34.2 -24.96 -35.84 -24.96 -38.64C-24.96 -41.2 -25.5 -42.76 -26.58 -43.32C-27.18 -43.64 -27.71 -43.83 -28.17 -43.89C-28.63 -43.95 -29.32 -43.98 -30.24 -43.98L-53.88 -43.98C-56 -43.98 -57.44 -43.61 -58.2 -42.87C-58.96 -42.13 -59.34 -40.74 -59.34 -38.7L-59.34 -5.34C-59.34 -3.94 -59.22 -2.92 -58.98 -2.28C-58.5 -0.76 -56.86 0 -54.06 0L-30.3 0C-28.9 0 -27.86 -0.12 -27.18 -0.36C-25.7 -0.84 -24.96 -2.48 -24.96 -5.28C-24.96 -7.84 -25.5 -9.4 -26.58 -9.96C-27.18 -10.28 -27.71 -10.47 -28.17 -10.53C-28.63 -10.59 -29.32 -10.62 -30.24 -10.62Z M14.04 -43.98L-9.6 -43.98C-11.72 -43.98 -13.16 -43.61 -13.92 -42.87C-14.68 -42.13 -15.06 -40.74 -15.06 -38.7L-15.06 -5.34C-15.06 -3.94 -14.94 -2.92 -14.7 -2.28C-14.22 -0.76 -12.58 0 -9.78 0C-7.22 0 -5.66 -0.54 -5.1 -1.62C-4.78 -2.22 -4.59 -2.74 -4.53 -3.18C-4.47 -3.62 -4.44 -4.32 -4.44 -5.28L-4.44 -16.62L7.32 -16.62C8.72 -16.62 9.74 -16.72 10.38 -16.92C11.9 -17.44 12.66 -19.1 12.66 -21.9C12.66 -24.46 12.14 -26.04 11.1 -26.64C10.5 -26.96 9.97 -27.15 9.51 -27.21C9.05 -27.27 8.34 -27.3 7.38 -27.3L-4.44 -27.3L-4.44 -33.36L13.92 -33.36C14.88 -33.36 15.59 -33.39 16.05 -33.45C16.51 -33.51 17.04 -33.69 17.64 -33.99C18.24 -34.29 18.66 -34.82 18.9 -35.58C19.14 -36.34 19.26 -37.36 19.26 -38.64C19.26 -39.92 19.14 -40.94 18.9 -41.7C18.66 -42.46 18.25 -43 17.67 -43.32C17.09 -43.64 16.57 -43.83 16.11 -43.89C15.65 -43.95 14.96 -43.98 14.04 -43.98Z M29.16 -38.7L29.16 -5.34C29.16 -3.94 29.28 -2.92 29.52 -2.28C30 -0.76 31.64 0 34.44 0C37 0 38.56 -0.54 39.12 -1.62C39.44 -2.22 39.63 -2.74 39.69 -3.18C39.75 -3.62 39.78 -4.32 39.78 -5.28L39.78 -38.64C39.78 -40.04 39.68 -41.08 39.48 -41.76C38.96 -43.24 37.3 -43.98 34.5 -43.98C31.94 -43.98 30.38 -43.44 29.82 -42.36C29.5 -41.76 29.31 -41.23 29.25 -40.77C29.19 -40.31 29.16 -39.62 29.16 -38.7Z M53.46 -44.04C52.14 -44.04 51.12 -43.86 50.4 -43.5C49.92 -43.26 49.58 -42.83 49.38 -42.21C49.18 -41.59 49.08 -40.76 49.08 -39.72C49.08 -38.68 49.18 -37.84 49.38 -37.2C49.58 -36.56 49.98 -36.09 50.58 -35.79C51.18 -35.49 52.12 -35.34 53.4 -35.34L64.92 -35.34L64.92 -5.22C64.92 -4.3 64.95 -3.61 65.01 -3.15C65.07 -2.69 65.25 -2.17 65.55 -1.59C65.85 -1.01 66.37 -0.6 67.11 -0.36C67.85 -0.12 68.84 0 70.08 0C71.32 0 72.32 -0.12 73.08 -0.36C73.84 -0.6 74.37 -1.01 74.67 -1.59C74.97 -2.17 75.15 -2.68 75.21 -3.12C75.27 -3.56 75.3 -4.24 75.3 -5.16L75.3 -35.34L86.76 -35.34C88.08 -35.34 89.1 -35.52 89.82 -35.88C90.3 -36.12 90.64 -36.55 90.84 -37.17C91.04 -37.79 91.14 -38.62 91.14 -39.66C91.14 -40.7 91.04 -41.54 90.84 -42.18C90.64 -42.82 90.24 -43.29 89.64 -43.59C89.04 -43.89 88.1 -44.04 86.82 -44.04Z M130.56 -43.56C129.8 -43.32 129.23 -42.85 128.85 -42.15C128.47 -41.45 128.28 -40.34 128.28 -38.82L128.28 -18.54C125.44 -22.22 119.8 -29.8 111.36 -41.28C110.6 -42.2 110.14 -42.72 109.98 -42.84C109.7 -43.12 109.21 -43.37 108.51 -43.59C107.81 -43.81 106.86 -43.92 105.66 -43.92C104.46 -43.92 103.48 -43.8 102.72 -43.56C101.96 -43.32 101.39 -42.85 101.01 -42.15C100.63 -41.45 100.44 -40.34 100.44 -38.82L100.44 -5.34C100.44 -4.42 100.47 -3.72 100.53 -3.24C100.59 -2.76 100.78 -2.22 101.1 -1.62C101.66 -0.54 103.18 0 105.66 0C108.22 0 109.78 -0.54 110.34 -1.62C110.66 -2.22 110.85 -2.74 110.91 -3.18C110.97 -3.62 111 -4.32 111 -5.28L111 -25.02C113.84 -21.34 119.76 -13.5 128.76 -1.5C129.16 -0.98 129.66 -0.6 130.26 -0.36C130.86 -0.12 131.94 0 133.5 0C136.06 0 137.62 -0.54 138.18 -1.62C138.5 -2.22 138.69 -2.74 138.75 -3.18C138.81 -3.62 138.84 -4.32 138.84 -5.28L138.84 -38.58C138.84 -39.98 138.72 -41 138.48 -41.64C138.32 -42.2 138.07 -42.62 137.73 -42.9C137.39 -43.18 136.87 -43.42 136.17 -43.62C135.47 -43.82 134.55 -43.92 133.41 -43.92C132.27 -43.92 131.32 -43.8 130.56 -43.56Z M160.26 -10.62L160.26 -16.68L172.02 -16.68C173.42 -16.68 174.46 -16.8 175.14 -17.04C176.66 -17.52 177.42 -19.16 177.42 -21.96C177.42 -24.52 176.88 -26.08 175.8 -26.64C175.2 -26.96 174.67 -27.15 174.21 -27.21C173.75 -27.27 173.06 -27.3 172.14 -27.3L160.26 -27.3L160.26 -33.36L178.68 -33.36C180.08 -33.36 181.12 -33.48 181.8 -33.72C183.28 -34.2 184.02 -35.84 184.02 -38.64C184.02 -41.2 183.48 -42.76 182.4 -43.32C181.8 -43.64 181.27 -43.83 180.81 -43.89C180.35 -43.95 179.66 -43.98 178.74 -43.98L155.1 -43.98C152.98 -43.98 151.54 -43.61 150.78 -42.87C150.02 -42.13 149.64 -40.74 149.64 -38.7L149.64 -5.34C149.64 -3.94 149.76 -2.92 150 -2.28C150.48 -0.76 152.12 0 154.92 0L178.68 0C180.08 0 181.12 -0.12 181.8 -0.36C183.28 -0.84 184.02 -2.48 184.02 -5.28C184.02 -7.84 183.48 -9.4 182.4 -9.96C181.8 -10.28 181.27 -10.47 180.81 -10.53C180.35 -10.59 179.66 -10.62 178.74 -10.62Z M194.58 -6.18L195.12 -5.52C195.96 -4.32 197.44 -3.08 199.56 -1.8C200.6 -1.12 201.96 -0.55 203.64 -0.09C205.32 0.37 207.1 0.6 208.98 0.6C212.66 0.6 216.12 -0.46 219.36 -2.58C221.04 -3.66 222.4 -5.19 223.44 -7.17C224.48 -9.15 225 -11.44 225 -14.04C225 -16.64 224.49 -18.83 223.47 -20.61C222.45 -22.39 221.18 -23.64 219.66 -24.36C218.14 -25.08 216.48 -25.69 214.68 -26.19C212.88 -26.69 211.22 -27.06 209.7 -27.3C208.18 -27.54 206.91 -28 205.89 -28.68C204.87 -29.36 204.36 -30.25 204.36 -31.35C204.36 -32.45 204.79 -33.31 205.65 -33.93C206.51 -34.55 207.59 -34.86 208.89 -34.86C210.19 -34.86 211.26 -34.6 212.1 -34.08C212.38 -33.88 212.69 -33.62 213.03 -33.3C213.37 -32.98 213.6 -32.78 213.72 -32.7C214.96 -31.9 216 -31.5 216.84 -31.5C218.28 -31.5 219.68 -32.5 221.04 -34.5C222 -35.9 222.48 -37 222.48 -37.8C222.48 -38.6 221.86 -39.58 220.62 -40.74L219.12 -41.88C218.36 -42.52 216.99 -43.15 215.01 -43.77C213.03 -44.39 210.84 -44.7 208.44 -44.7C203.92 -44.7 200.35 -43.39 197.73 -40.77C195.11 -38.15 193.8 -35.08 193.8 -31.56C193.8 -29 194.31 -26.81 195.33 -24.99C196.35 -23.17 197.62 -21.84 199.14 -21C200.66 -20.16 202.3 -19.43 204.06 -18.81C205.82 -18.19 207.46 -17.74 208.98 -17.46C210.5 -17.18 211.77 -16.73 212.79 -16.11C213.81 -15.49 214.32 -14.72 214.32 -13.8C214.32 -10.76 212.46 -9.24 208.74 -9.24C207.86 -9.24 206.9 -9.55 205.86 -10.17C204.82 -10.79 204.02 -11.44 203.46 -12.12C201.46 -14.12 199.9 -15.12 198.78 -15.12C197.66 -15.12 196.6 -14.64 195.6 -13.68C193.88 -12 193.02 -10.65 193.02 -9.63C193.02 -8.61 193.54 -7.46 194.58 -6.18Z M235.56 -6.18L236.1 -5.52C236.94 -4.32 238.42 -3.08 240.54 -1.8C241.58 -1.12 242.94 -0.55 244.62 -0.09C246.3 0.37 248.08 0.6 249.96 0.6C253.64 0.6 257.1 -0.46 260.34 -2.58C262.02 -3.66 263.38 -5.19 264.42 -7.17C265.46 -9.15 265.98 -11.44 265.98 -14.04C265.98 -16.64 265.47 -18.83 264.45 -20.61C263.43 -22.39 262.16 -23.64 260.64 -24.36C259.12 -25.08 257.46 -25.69 255.66 -26.19C253.86 -26.69 252.2 -27.06 250.68 -27.3C249.16 -27.54 247.89 -28 246.87 -28.68C245.85 -29.36 245.34 -30.25 245.34 -31.35C245.34 -32.45 245.77 -33.31 246.63 -33.93C247.49 -34.55 248.57 -34.86 249.87 -34.86C251.17 -34.86 252.24 -34.6 253.08 -34.08C253.36 -33.88 253.67 -33.62 254.01 -33.3C254.35 -32.98 254.58 -32.78 254.7 -32.7C255.94 -31.9 256.98 -31.5 257.82 -31.5C259.26 -31.5 260.66 -32.5 262.02 -34.5C262.98 -35.9 263.46 -37 263.46 -37.8C263.46 -38.6 262.84 -39.58 261.6 -40.74L260.1 -41.88C259.34 -42.52 257.97 -43.15 255.99 -43.77C254.01 -44.39 251.82 -44.7 249.42 -44.7C244.9 -44.7 241.33 -43.39 238.71 -40.77C236.09 -38.15 234.78 -35.08 234.78 -31.56C234.78 -29 235.29 -26.81 236.31 -24.99C237.33 -23.17 238.6 -21.84 240.12 -21C241.64 -20.16 243.28 -19.43 245.04 -18.81C246.8 -18.19 248.44 -17.74 249.96 -17.46C251.48 -17.18 252.75 -16.73 253.77 -16.11C254.79 -15.49 255.3 -14.72 255.3 -13.8C255.3 -10.76 253.44 -9.24 249.72 -9.24C248.84 -9.24 247.88 -9.55 246.84 -10.17C245.8 -10.79 245 -11.44 244.44 -12.12C242.44 -14.12 240.88 -15.12 239.76 -15.12C238.64 -15.12 237.58 -14.64 236.58 -13.68C234.86 -12 234 -10.65 234 -9.63C234 -8.61 234.52 -7.46 235.56 -6.18Z"></path>
    </g>
  </g>
</svg>
